<?xml version="1.0" encoding="utf-8" standalone="no"?>
<!DOCTYPE svg PUBLIC "-//W3C//DTD SVG 1.1//EN"
  "http://www.w3.org/Graphics/SVG/1.1/DTD/svg11.dtd">
<!-- Created with matplotlib (https://matplotlib.org/) -->
<svg height="360pt" version="1.1" viewBox="0 0 2160 360" width="2160pt" xmlns="http://www.w3.org/2000/svg" xmlns:xlink="http://www.w3.org/1999/xlink">
 <defs>
  <style type="text/css">
*{stroke-linecap:butt;stroke-linejoin:round;}
  </style>
 </defs>
 <g id="figure_1">
  <g id="patch_1">
   <path d="M 0 360 
L 2160 360 
L 2160 0 
L 0 0 
z
" style="fill:#ffffff;"/>
  </g>
  <g id="axes_1">
   <g id="patch_2">
    <path d="M 432 288 
L 864 288 
L 864 0 
L 432 0 
z
" style="fill:#ffffff;"/>
   </g>
   <g id="matplotlib.axis_1">
    <g id="xtick_1">
     <g id="line2d_1">
      <path clip-path="url(#p2d9c5f2f06)" d="M 451.636364 288 
L 451.636364 0 
" style="fill:none;stroke:#0000ff;stroke-dasharray:0.74,0.32;stroke-dashoffset:0;stroke-opacity:0.5;stroke-width:0.2;"/>
     </g>
     <g id="line2d_2">
      <defs>
       <path d="M 0 0 
L 0 3.5 
" id="mb8909eff91" style="stroke:#000000;stroke-width:0.8;"/>
      </defs>
      <g>
       <use style="stroke:#000000;stroke-width:0.8;" x="451.636364" xlink:href="#mb8909eff91" y="288"/>
      </g>
     </g>
     <g id="text_1">
      <!-- −5 -->
      <defs>
       <path d="M 10.59375 35.5 
L 73.1875 35.5 
L 73.1875 27.203125 
L 10.59375 27.203125 
z
" id="DejaVuSans-8722"/>
       <path d="M 10.796875 72.90625 
L 49.515625 72.90625 
L 49.515625 64.59375 
L 19.828125 64.59375 
L 19.828125 46.734375 
Q 21.96875 47.46875 24.109375 47.828125 
Q 26.265625 48.1875 28.421875 48.1875 
Q 40.625 48.1875 47.75 41.5 
Q 54.890625 34.8125 54.890625 23.390625 
Q 54.890625 11.625 47.5625 5.09375 
Q 40.234375 -1.421875 26.90625 -1.421875 
Q 22.3125 -1.421875 17.546875 -0.640625 
Q 12.796875 0.140625 7.71875 1.703125 
L 7.71875 11.625 
Q 12.109375 9.234375 16.796875 8.0625 
Q 21.484375 6.890625 26.703125 6.890625 
Q 35.15625 6.890625 40.078125 11.328125 
Q 45.015625 15.765625 45.015625 23.390625 
Q 45.015625 31 40.078125 35.4375 
Q 35.15625 39.890625 26.703125 39.890625 
Q 22.75 39.890625 18.8125 39.015625 
Q 14.890625 38.140625 10.796875 36.28125 
z
" id="DejaVuSans-53"/>
      </defs>
      <g transform="translate(444.26527 302.598437)scale(0.1 -0.1)">
       <use xlink:href="#DejaVuSans-8722"/>
       <use x="83.789062" xlink:href="#DejaVuSans-53"/>
      </g>
     </g>
    </g>
    <g id="xtick_2">
     <g id="line2d_3">
      <path clip-path="url(#p2d9c5f2f06)" d="M 490.909091 288 
L 490.909091 0 
" style="fill:none;stroke:#0000ff;stroke-dasharray:0.74,0.32;stroke-dashoffset:0;stroke-opacity:0.5;stroke-width:0.2;"/>
     </g>
     <g id="line2d_4">
      <g>
       <use style="stroke:#000000;stroke-width:0.8;" x="490.909091" xlink:href="#mb8909eff91" y="288"/>
      </g>
     </g>
     <g id="text_2">
      <!-- −4 -->
      <defs>
       <path d="M 37.796875 64.3125 
L 12.890625 25.390625 
L 37.796875 25.390625 
z
M 35.203125 72.90625 
L 47.609375 72.90625 
L 47.609375 25.390625 
L 58.015625 25.390625 
L 58.015625 17.1875 
L 47.609375 17.1875 
L 47.609375 0 
L 37.796875 0 
L 37.796875 17.1875 
L 4.890625 17.1875 
L 4.890625 26.703125 
z
" id="DejaVuSans-52"/>
      </defs>
      <g transform="translate(483.537997 302.598437)scale(0.1 -0.1)">
       <use xlink:href="#DejaVuSans-8722"/>
       <use x="83.789062" xlink:href="#DejaVuSans-52"/>
      </g>
     </g>
    </g>
    <g id="xtick_3">
     <g id="line2d_5">
      <path clip-path="url(#p2d9c5f2f06)" d="M 530.181818 288 
L 530.181818 0 
" style="fill:none;stroke:#0000ff;stroke-dasharray:0.74,0.32;stroke-dashoffset:0;stroke-opacity:0.5;stroke-width:0.2;"/>
     </g>
     <g id="line2d_6">
      <g>
       <use style="stroke:#000000;stroke-width:0.8;" x="530.181818" xlink:href="#mb8909eff91" y="288"/>
      </g>
     </g>
     <g id="text_3">
      <!-- −3 -->
      <defs>
       <path d="M 40.578125 39.3125 
Q 47.65625 37.796875 51.625 33 
Q 55.609375 28.21875 55.609375 21.1875 
Q 55.609375 10.40625 48.1875 4.484375 
Q 40.765625 -1.421875 27.09375 -1.421875 
Q 22.515625 -1.421875 17.65625 -0.515625 
Q 12.796875 0.390625 7.625 2.203125 
L 7.625 11.71875 
Q 11.71875 9.328125 16.59375 8.109375 
Q 21.484375 6.890625 26.8125 6.890625 
Q 36.078125 6.890625 40.9375 10.546875 
Q 45.796875 14.203125 45.796875 21.1875 
Q 45.796875 27.640625 41.28125 31.265625 
Q 36.765625 34.90625 28.71875 34.90625 
L 20.21875 34.90625 
L 20.21875 43.015625 
L 29.109375 43.015625 
Q 36.375 43.015625 40.234375 45.921875 
Q 44.09375 48.828125 44.09375 54.296875 
Q 44.09375 59.90625 40.109375 62.90625 
Q 36.140625 65.921875 28.71875 65.921875 
Q 24.65625 65.921875 20.015625 65.03125 
Q 15.375 64.15625 9.8125 62.3125 
L 9.8125 71.09375 
Q 15.4375 72.65625 20.34375 73.4375 
Q 25.25 74.21875 29.59375 74.21875 
Q 40.828125 74.21875 47.359375 69.109375 
Q 53.90625 64.015625 53.90625 55.328125 
Q 53.90625 49.265625 50.4375 45.09375 
Q 46.96875 40.921875 40.578125 39.3125 
z
" id="DejaVuSans-51"/>
      </defs>
      <g transform="translate(522.810724 302.598437)scale(0.1 -0.1)">
       <use xlink:href="#DejaVuSans-8722"/>
       <use x="83.789062" xlink:href="#DejaVuSans-51"/>
      </g>
     </g>
    </g>
    <g id="xtick_4">
     <g id="line2d_7">
      <path clip-path="url(#p2d9c5f2f06)" d="M 569.454545 288 
L 569.454545 0 
" style="fill:none;stroke:#0000ff;stroke-dasharray:0.74,0.32;stroke-dashoffset:0;stroke-opacity:0.5;stroke-width:0.2;"/>
     </g>
     <g id="line2d_8">
      <g>
       <use style="stroke:#000000;stroke-width:0.8;" x="569.454545" xlink:href="#mb8909eff91" y="288"/>
      </g>
     </g>
     <g id="text_4">
      <!-- −2 -->
      <defs>
       <path d="M 19.1875 8.296875 
L 53.609375 8.296875 
L 53.609375 0 
L 7.328125 0 
L 7.328125 8.296875 
Q 12.9375 14.109375 22.625 23.890625 
Q 32.328125 33.6875 34.8125 36.53125 
Q 39.546875 41.84375 41.421875 45.53125 
Q 43.3125 49.21875 43.3125 52.78125 
Q 43.3125 58.59375 39.234375 62.25 
Q 35.15625 65.921875 28.609375 65.921875 
Q 23.96875 65.921875 18.8125 64.3125 
Q 13.671875 62.703125 7.8125 59.421875 
L 7.8125 69.390625 
Q 13.765625 71.78125 18.9375 73 
Q 24.125 74.21875 28.421875 74.21875 
Q 39.75 74.21875 46.484375 68.546875 
Q 53.21875 62.890625 53.21875 53.421875 
Q 53.21875 48.921875 51.53125 44.890625 
Q 49.859375 40.875 45.40625 35.40625 
Q 44.1875 33.984375 37.640625 27.21875 
Q 31.109375 20.453125 19.1875 8.296875 
z
" id="DejaVuSans-50"/>
      </defs>
      <g transform="translate(562.083452 302.598437)scale(0.1 -0.1)">
       <use xlink:href="#DejaVuSans-8722"/>
       <use x="83.789062" xlink:href="#DejaVuSans-50"/>
      </g>
     </g>
    </g>
    <g id="xtick_5">
     <g id="line2d_9">
      <path clip-path="url(#p2d9c5f2f06)" d="M 608.727273 288 
L 608.727273 0 
" style="fill:none;stroke:#0000ff;stroke-dasharray:0.74,0.32;stroke-dashoffset:0;stroke-opacity:0.5;stroke-width:0.2;"/>
     </g>
     <g id="line2d_10">
      <g>
       <use style="stroke:#000000;stroke-width:0.8;" x="608.727273" xlink:href="#mb8909eff91" y="288"/>
      </g>
     </g>
     <g id="text_5">
      <!-- −1 -->
      <defs>
       <path d="M 12.40625 8.296875 
L 28.515625 8.296875 
L 28.515625 63.921875 
L 10.984375 60.40625 
L 10.984375 69.390625 
L 28.421875 72.90625 
L 38.28125 72.90625 
L 38.28125 8.296875 
L 54.390625 8.296875 
L 54.390625 0 
L 12.40625 0 
z
" id="DejaVuSans-49"/>
      </defs>
      <g transform="translate(601.356179 302.598437)scale(0.1 -0.1)">
       <use xlink:href="#DejaVuSans-8722"/>
       <use x="83.789062" xlink:href="#DejaVuSans-49"/>
      </g>
     </g>
    </g>
    <g id="xtick_6">
     <g id="line2d_11">
      <path clip-path="url(#p2d9c5f2f06)" d="M 648 288 
L 648 0 
" style="fill:none;stroke:#0000ff;stroke-dasharray:0.74,0.32;stroke-dashoffset:0;stroke-opacity:0.5;stroke-width:0.2;"/>
     </g>
     <g id="line2d_12">
      <g>
       <use style="stroke:#000000;stroke-width:0.8;" x="648" xlink:href="#mb8909eff91" y="288"/>
      </g>
     </g>
     <g id="text_6">
      <!-- 0 -->
      <defs>
       <path d="M 31.78125 66.40625 
Q 24.171875 66.40625 20.328125 58.90625 
Q 16.5 51.421875 16.5 36.375 
Q 16.5 21.390625 20.328125 13.890625 
Q 24.171875 6.390625 31.78125 6.390625 
Q 39.453125 6.390625 43.28125 13.890625 
Q 47.125 21.390625 47.125 36.375 
Q 47.125 51.421875 43.28125 58.90625 
Q 39.453125 66.40625 31.78125 66.40625 
z
M 31.78125 74.21875 
Q 44.046875 74.21875 50.515625 64.515625 
Q 56.984375 54.828125 56.984375 36.375 
Q 56.984375 17.96875 50.515625 8.265625 
Q 44.046875 -1.421875 31.78125 -1.421875 
Q 19.53125 -1.421875 13.0625 8.265625 
Q 6.59375 17.96875 6.59375 36.375 
Q 6.59375 54.828125 13.0625 64.515625 
Q 19.53125 74.21875 31.78125 74.21875 
z
" id="DejaVuSans-48"/>
      </defs>
      <g transform="translate(644.81875 302.598437)scale(0.1 -0.1)">
       <use xlink:href="#DejaVuSans-48"/>
      </g>
     </g>
    </g>
    <g id="xtick_7">
     <g id="line2d_13">
      <path clip-path="url(#p2d9c5f2f06)" d="M 687.272727 288 
L 687.272727 0 
" style="fill:none;stroke:#0000ff;stroke-dasharray:0.74,0.32;stroke-dashoffset:0;stroke-opacity:0.5;stroke-width:0.2;"/>
     </g>
     <g id="line2d_14">
      <g>
       <use style="stroke:#000000;stroke-width:0.8;" x="687.272727" xlink:href="#mb8909eff91" y="288"/>
      </g>
     </g>
     <g id="text_7">
      <!-- 1 -->
      <g transform="translate(684.091477 302.598437)scale(0.1 -0.1)">
       <use xlink:href="#DejaVuSans-49"/>
      </g>
     </g>
    </g>
    <g id="xtick_8">
     <g id="line2d_15">
      <path clip-path="url(#p2d9c5f2f06)" d="M 726.545455 288 
L 726.545455 0 
" style="fill:none;stroke:#0000ff;stroke-dasharray:0.74,0.32;stroke-dashoffset:0;stroke-opacity:0.5;stroke-width:0.2;"/>
     </g>
     <g id="line2d_16">
      <g>
       <use style="stroke:#000000;stroke-width:0.8;" x="726.545455" xlink:href="#mb8909eff91" y="288"/>
      </g>
     </g>
     <g id="text_8">
      <!-- 2 -->
      <g transform="translate(723.364205 302.598437)scale(0.1 -0.1)">
       <use xlink:href="#DejaVuSans-50"/>
      </g>
     </g>
    </g>
    <g id="xtick_9">
     <g id="line2d_17">
      <path clip-path="url(#p2d9c5f2f06)" d="M 765.818182 288 
L 765.818182 0 
" style="fill:none;stroke:#0000ff;stroke-dasharray:0.74,0.32;stroke-dashoffset:0;stroke-opacity:0.5;stroke-width:0.2;"/>
     </g>
     <g id="line2d_18">
      <g>
       <use style="stroke:#000000;stroke-width:0.8;" x="765.818182" xlink:href="#mb8909eff91" y="288"/>
      </g>
     </g>
     <g id="text_9">
      <!-- 3 -->
      <g transform="translate(762.636932 302.598437)scale(0.1 -0.1)">
       <use xlink:href="#DejaVuSans-51"/>
      </g>
     </g>
    </g>
    <g id="xtick_10">
     <g id="line2d_19">
      <path clip-path="url(#p2d9c5f2f06)" d="M 805.090909 288 
L 805.090909 0 
" style="fill:none;stroke:#0000ff;stroke-dasharray:0.74,0.32;stroke-dashoffset:0;stroke-opacity:0.5;stroke-width:0.2;"/>
     </g>
     <g id="line2d_20">
      <g>
       <use style="stroke:#000000;stroke-width:0.8;" x="805.090909" xlink:href="#mb8909eff91" y="288"/>
      </g>
     </g>
     <g id="text_10">
      <!-- 4 -->
      <g transform="translate(801.909659 302.598437)scale(0.1 -0.1)">
       <use xlink:href="#DejaVuSans-52"/>
      </g>
     </g>
    </g>
    <g id="xtick_11">
     <g id="line2d_21">
      <path clip-path="url(#p2d9c5f2f06)" d="M 844.363636 288 
L 844.363636 0 
" style="fill:none;stroke:#0000ff;stroke-dasharray:0.74,0.32;stroke-dashoffset:0;stroke-opacity:0.5;stroke-width:0.2;"/>
     </g>
     <g id="line2d_22">
      <g>
       <use style="stroke:#000000;stroke-width:0.8;" x="844.363636" xlink:href="#mb8909eff91" y="288"/>
      </g>
     </g>
     <g id="text_11">
      <!-- 5 -->
      <g transform="translate(841.182386 302.598437)scale(0.1 -0.1)">
       <use xlink:href="#DejaVuSans-53"/>
      </g>
     </g>
    </g>
    <g id="xtick_12">
     <g id="line2d_23">
      <defs>
       <path d="M 0 0 
L 0 4 
" id="m7f9f5edd11" style="stroke:#0000ff;stroke-width:0.6;"/>
      </defs>
      <g>
       <use style="fill:#0000ff;stroke:#0000ff;stroke-width:0.6;" x="435.927273" xlink:href="#m7f9f5edd11" y="288"/>
      </g>
     </g>
    </g>
    <g id="xtick_13">
     <g id="line2d_24">
      <g>
       <use style="fill:#0000ff;stroke:#0000ff;stroke-width:0.6;" x="443.781818" xlink:href="#m7f9f5edd11" y="288"/>
      </g>
     </g>
    </g>
    <g id="xtick_14">
     <g id="line2d_25">
      <g>
       <use style="fill:#0000ff;stroke:#0000ff;stroke-width:0.6;" x="459.490909" xlink:href="#m7f9f5edd11" y="288"/>
      </g>
     </g>
    </g>
    <g id="xtick_15">
     <g id="line2d_26">
      <g>
       <use style="fill:#0000ff;stroke:#0000ff;stroke-width:0.6;" x="467.345455" xlink:href="#m7f9f5edd11" y="288"/>
      </g>
     </g>
    </g>
    <g id="xtick_16">
     <g id="line2d_27">
      <g>
       <use style="fill:#0000ff;stroke:#0000ff;stroke-width:0.6;" x="475.2" xlink:href="#m7f9f5edd11" y="288"/>
      </g>
     </g>
    </g>
    <g id="xtick_17">
     <g id="line2d_28">
      <g>
       <use style="fill:#0000ff;stroke:#0000ff;stroke-width:0.6;" x="483.054545" xlink:href="#m7f9f5edd11" y="288"/>
      </g>
     </g>
    </g>
    <g id="xtick_18">
     <g id="line2d_29">
      <g>
       <use style="fill:#0000ff;stroke:#0000ff;stroke-width:0.6;" x="498.763636" xlink:href="#m7f9f5edd11" y="288"/>
      </g>
     </g>
    </g>
    <g id="xtick_19">
     <g id="line2d_30">
      <g>
       <use style="fill:#0000ff;stroke:#0000ff;stroke-width:0.6;" x="506.618182" xlink:href="#m7f9f5edd11" y="288"/>
      </g>
     </g>
    </g>
    <g id="xtick_20">
     <g id="line2d_31">
      <g>
       <use style="fill:#0000ff;stroke:#0000ff;stroke-width:0.6;" x="514.472727" xlink:href="#m7f9f5edd11" y="288"/>
      </g>
     </g>
    </g>
    <g id="xtick_21">
     <g id="line2d_32">
      <g>
       <use style="fill:#0000ff;stroke:#0000ff;stroke-width:0.6;" x="522.327273" xlink:href="#m7f9f5edd11" y="288"/>
      </g>
     </g>
    </g>
    <g id="xtick_22">
     <g id="line2d_33">
      <g>
       <use style="fill:#0000ff;stroke:#0000ff;stroke-width:0.6;" x="538.036364" xlink:href="#m7f9f5edd11" y="288"/>
      </g>
     </g>
    </g>
    <g id="xtick_23">
     <g id="line2d_34">
      <g>
       <use style="fill:#0000ff;stroke:#0000ff;stroke-width:0.6;" x="545.890909" xlink:href="#m7f9f5edd11" y="288"/>
      </g>
     </g>
    </g>
    <g id="xtick_24">
     <g id="line2d_35">
      <g>
       <use style="fill:#0000ff;stroke:#0000ff;stroke-width:0.6;" x="553.745455" xlink:href="#m7f9f5edd11" y="288"/>
      </g>
     </g>
    </g>
    <g id="xtick_25">
     <g id="line2d_36">
      <g>
       <use style="fill:#0000ff;stroke:#0000ff;stroke-width:0.6;" x="561.6" xlink:href="#m7f9f5edd11" y="288"/>
      </g>
     </g>
    </g>
    <g id="xtick_26">
     <g id="line2d_37">
      <g>
       <use style="fill:#0000ff;stroke:#0000ff;stroke-width:0.6;" x="577.309091" xlink:href="#m7f9f5edd11" y="288"/>
      </g>
     </g>
    </g>
    <g id="xtick_27">
     <g id="line2d_38">
      <g>
       <use style="fill:#0000ff;stroke:#0000ff;stroke-width:0.6;" x="585.163636" xlink:href="#m7f9f5edd11" y="288"/>
      </g>
     </g>
    </g>
    <g id="xtick_28">
     <g id="line2d_39">
      <g>
       <use style="fill:#0000ff;stroke:#0000ff;stroke-width:0.6;" x="593.018182" xlink:href="#m7f9f5edd11" y="288"/>
      </g>
     </g>
    </g>
    <g id="xtick_29">
     <g id="line2d_40">
      <g>
       <use style="fill:#0000ff;stroke:#0000ff;stroke-width:0.6;" x="600.872727" xlink:href="#m7f9f5edd11" y="288"/>
      </g>
     </g>
    </g>
    <g id="xtick_30">
     <g id="line2d_41">
      <g>
       <use style="fill:#0000ff;stroke:#0000ff;stroke-width:0.6;" x="616.581818" xlink:href="#m7f9f5edd11" y="288"/>
      </g>
     </g>
    </g>
    <g id="xtick_31">
     <g id="line2d_42">
      <g>
       <use style="fill:#0000ff;stroke:#0000ff;stroke-width:0.6;" x="624.436364" xlink:href="#m7f9f5edd11" y="288"/>
      </g>
     </g>
    </g>
    <g id="xtick_32">
     <g id="line2d_43">
      <g>
       <use style="fill:#0000ff;stroke:#0000ff;stroke-width:0.6;" x="632.290909" xlink:href="#m7f9f5edd11" y="288"/>
      </g>
     </g>
    </g>
    <g id="xtick_33">
     <g id="line2d_44">
      <g>
       <use style="fill:#0000ff;stroke:#0000ff;stroke-width:0.6;" x="640.145455" xlink:href="#m7f9f5edd11" y="288"/>
      </g>
     </g>
    </g>
    <g id="xtick_34">
     <g id="line2d_45">
      <g>
       <use style="fill:#0000ff;stroke:#0000ff;stroke-width:0.6;" x="655.854545" xlink:href="#m7f9f5edd11" y="288"/>
      </g>
     </g>
    </g>
    <g id="xtick_35">
     <g id="line2d_46">
      <g>
       <use style="fill:#0000ff;stroke:#0000ff;stroke-width:0.6;" x="663.709091" xlink:href="#m7f9f5edd11" y="288"/>
      </g>
     </g>
    </g>
    <g id="xtick_36">
     <g id="line2d_47">
      <g>
       <use style="fill:#0000ff;stroke:#0000ff;stroke-width:0.6;" x="671.563636" xlink:href="#m7f9f5edd11" y="288"/>
      </g>
     </g>
    </g>
    <g id="xtick_37">
     <g id="line2d_48">
      <g>
       <use style="fill:#0000ff;stroke:#0000ff;stroke-width:0.6;" x="679.418182" xlink:href="#m7f9f5edd11" y="288"/>
      </g>
     </g>
    </g>
    <g id="xtick_38">
     <g id="line2d_49">
      <g>
       <use style="fill:#0000ff;stroke:#0000ff;stroke-width:0.6;" x="695.127273" xlink:href="#m7f9f5edd11" y="288"/>
      </g>
     </g>
    </g>
    <g id="xtick_39">
     <g id="line2d_50">
      <g>
       <use style="fill:#0000ff;stroke:#0000ff;stroke-width:0.6;" x="702.981818" xlink:href="#m7f9f5edd11" y="288"/>
      </g>
     </g>
    </g>
    <g id="xtick_40">
     <g id="line2d_51">
      <g>
       <use style="fill:#0000ff;stroke:#0000ff;stroke-width:0.6;" x="710.836364" xlink:href="#m7f9f5edd11" y="288"/>
      </g>
     </g>
    </g>
    <g id="xtick_41">
     <g id="line2d_52">
      <g>
       <use style="fill:#0000ff;stroke:#0000ff;stroke-width:0.6;" x="718.690909" xlink:href="#m7f9f5edd11" y="288"/>
      </g>
     </g>
    </g>
    <g id="xtick_42">
     <g id="line2d_53">
      <g>
       <use style="fill:#0000ff;stroke:#0000ff;stroke-width:0.6;" x="734.4" xlink:href="#m7f9f5edd11" y="288"/>
      </g>
     </g>
    </g>
    <g id="xtick_43">
     <g id="line2d_54">
      <g>
       <use style="fill:#0000ff;stroke:#0000ff;stroke-width:0.6;" x="742.254545" xlink:href="#m7f9f5edd11" y="288"/>
      </g>
     </g>
    </g>
    <g id="xtick_44">
     <g id="line2d_55">
      <g>
       <use style="fill:#0000ff;stroke:#0000ff;stroke-width:0.6;" x="750.109091" xlink:href="#m7f9f5edd11" y="288"/>
      </g>
     </g>
    </g>
    <g id="xtick_45">
     <g id="line2d_56">
      <g>
       <use style="fill:#0000ff;stroke:#0000ff;stroke-width:0.6;" x="757.963636" xlink:href="#m7f9f5edd11" y="288"/>
      </g>
     </g>
    </g>
    <g id="xtick_46">
     <g id="line2d_57">
      <g>
       <use style="fill:#0000ff;stroke:#0000ff;stroke-width:0.6;" x="773.672727" xlink:href="#m7f9f5edd11" y="288"/>
      </g>
     </g>
    </g>
    <g id="xtick_47">
     <g id="line2d_58">
      <g>
       <use style="fill:#0000ff;stroke:#0000ff;stroke-width:0.6;" x="781.527273" xlink:href="#m7f9f5edd11" y="288"/>
      </g>
     </g>
    </g>
    <g id="xtick_48">
     <g id="line2d_59">
      <g>
       <use style="fill:#0000ff;stroke:#0000ff;stroke-width:0.6;" x="789.381818" xlink:href="#m7f9f5edd11" y="288"/>
      </g>
     </g>
    </g>
    <g id="xtick_49">
     <g id="line2d_60">
      <g>
       <use style="fill:#0000ff;stroke:#0000ff;stroke-width:0.6;" x="797.236364" xlink:href="#m7f9f5edd11" y="288"/>
      </g>
     </g>
    </g>
    <g id="xtick_50">
     <g id="line2d_61">
      <g>
       <use style="fill:#0000ff;stroke:#0000ff;stroke-width:0.6;" x="812.945455" xlink:href="#m7f9f5edd11" y="288"/>
      </g>
     </g>
    </g>
    <g id="xtick_51">
     <g id="line2d_62">
      <g>
       <use style="fill:#0000ff;stroke:#0000ff;stroke-width:0.6;" x="820.8" xlink:href="#m7f9f5edd11" y="288"/>
      </g>
     </g>
    </g>
    <g id="xtick_52">
     <g id="line2d_63">
      <g>
       <use style="fill:#0000ff;stroke:#0000ff;stroke-width:0.6;" x="828.654545" xlink:href="#m7f9f5edd11" y="288"/>
      </g>
     </g>
    </g>
    <g id="xtick_53">
     <g id="line2d_64">
      <g>
       <use style="fill:#0000ff;stroke:#0000ff;stroke-width:0.6;" x="836.509091" xlink:href="#m7f9f5edd11" y="288"/>
      </g>
     </g>
    </g>
    <g id="xtick_54">
     <g id="line2d_65">
      <g>
       <use style="fill:#0000ff;stroke:#0000ff;stroke-width:0.6;" x="852.218182" xlink:href="#m7f9f5edd11" y="288"/>
      </g>
     </g>
    </g>
    <g id="xtick_55">
     <g id="line2d_66">
      <g>
       <use style="fill:#0000ff;stroke:#0000ff;stroke-width:0.6;" x="860.072727" xlink:href="#m7f9f5edd11" y="288"/>
      </g>
     </g>
    </g>
    <g id="text_12">
     <!-- $X$ -->
     <defs>
      <path d="M 13.71875 72.90625 
L 23.6875 72.90625 
L 36.1875 46.578125 
L 58.796875 72.90625 
L 70.3125 72.90625 
L 40.28125 38.09375 
L 58.40625 0 
L 48.484375 0 
L 33.796875 30.71875 
L 7.171875 0 
L -4.296875 0 
L 29.78125 39.203125 
z
" id="DejaVuSans-Oblique-88"/>
     </defs>
     <g transform="translate(644.55 316.276563)scale(0.1 -0.1)">
      <use transform="translate(0 0.09375)" xlink:href="#DejaVuSans-Oblique-88"/>
     </g>
    </g>
   </g>
   <g id="matplotlib.axis_2">
    <g id="ytick_1">
     <g id="line2d_67">
      <path clip-path="url(#p2d9c5f2f06)" d="M 432 275.703537 
L 864 275.703537 
" style="fill:none;stroke:#0000ff;stroke-dasharray:0.74,0.32;stroke-dashoffset:0;stroke-opacity:0.5;stroke-width:0.2;"/>
     </g>
     <g id="line2d_68">
      <defs>
       <path d="M 0 0 
L -3.5 0 
" id="m5a52943baf" style="stroke:#000000;stroke-width:0.8;"/>
      </defs>
      <g>
       <use style="stroke:#000000;stroke-width:0.8;" x="432" xlink:href="#m5a52943baf" y="275.703537"/>
      </g>
     </g>
     <g id="text_13">
      <!-- 0.0 -->
      <defs>
       <path d="M 10.6875 12.40625 
L 21 12.40625 
L 21 0 
L 10.6875 0 
z
" id="DejaVuSans-46"/>
      </defs>
      <g transform="translate(409.096875 279.502756)scale(0.1 -0.1)">
       <use xlink:href="#DejaVuSans-48"/>
       <use x="63.623047" xlink:href="#DejaVuSans-46"/>
       <use x="95.410156" xlink:href="#DejaVuSans-48"/>
      </g>
     </g>
    </g>
    <g id="ytick_2">
     <g id="line2d_69">
      <path clip-path="url(#p2d9c5f2f06)" d="M 432 220.562829 
L 864 220.562829 
" style="fill:none;stroke:#0000ff;stroke-dasharray:0.74,0.32;stroke-dashoffset:0;stroke-opacity:0.5;stroke-width:0.2;"/>
     </g>
     <g id="line2d_70">
      <g>
       <use style="stroke:#000000;stroke-width:0.8;" x="432" xlink:href="#m5a52943baf" y="220.562829"/>
      </g>
     </g>
     <g id="text_14">
      <!-- 0.2 -->
      <g transform="translate(409.096875 224.362048)scale(0.1 -0.1)">
       <use xlink:href="#DejaVuSans-48"/>
       <use x="63.623047" xlink:href="#DejaVuSans-46"/>
       <use x="95.410156" xlink:href="#DejaVuSans-50"/>
      </g>
     </g>
    </g>
    <g id="ytick_3">
     <g id="line2d_71">
      <path clip-path="url(#p2d9c5f2f06)" d="M 432 165.422122 
L 864 165.422122 
" style="fill:none;stroke:#0000ff;stroke-dasharray:0.74,0.32;stroke-dashoffset:0;stroke-opacity:0.5;stroke-width:0.2;"/>
     </g>
     <g id="line2d_72">
      <g>
       <use style="stroke:#000000;stroke-width:0.8;" x="432" xlink:href="#m5a52943baf" y="165.422122"/>
      </g>
     </g>
     <g id="text_15">
      <!-- 0.4 -->
      <g transform="translate(409.096875 169.221341)scale(0.1 -0.1)">
       <use xlink:href="#DejaVuSans-48"/>
       <use x="63.623047" xlink:href="#DejaVuSans-46"/>
       <use x="95.410156" xlink:href="#DejaVuSans-52"/>
      </g>
     </g>
    </g>
    <g id="ytick_4">
     <g id="line2d_73">
      <path clip-path="url(#p2d9c5f2f06)" d="M 432 110.281415 
L 864 110.281415 
" style="fill:none;stroke:#0000ff;stroke-dasharray:0.74,0.32;stroke-dashoffset:0;stroke-opacity:0.5;stroke-width:0.2;"/>
     </g>
     <g id="line2d_74">
      <g>
       <use style="stroke:#000000;stroke-width:0.8;" x="432" xlink:href="#m5a52943baf" y="110.281415"/>
      </g>
     </g>
     <g id="text_16">
      <!-- 0.6 -->
      <defs>
       <path d="M 33.015625 40.375 
Q 26.375 40.375 22.484375 35.828125 
Q 18.609375 31.296875 18.609375 23.390625 
Q 18.609375 15.53125 22.484375 10.953125 
Q 26.375 6.390625 33.015625 6.390625 
Q 39.65625 6.390625 43.53125 10.953125 
Q 47.40625 15.53125 47.40625 23.390625 
Q 47.40625 31.296875 43.53125 35.828125 
Q 39.65625 40.375 33.015625 40.375 
z
M 52.59375 71.296875 
L 52.59375 62.3125 
Q 48.875 64.0625 45.09375 64.984375 
Q 41.3125 65.921875 37.59375 65.921875 
Q 27.828125 65.921875 22.671875 59.328125 
Q 17.53125 52.734375 16.796875 39.40625 
Q 19.671875 43.65625 24.015625 45.921875 
Q 28.375 48.1875 33.59375 48.1875 
Q 44.578125 48.1875 50.953125 41.515625 
Q 57.328125 34.859375 57.328125 23.390625 
Q 57.328125 12.15625 50.6875 5.359375 
Q 44.046875 -1.421875 33.015625 -1.421875 
Q 20.359375 -1.421875 13.671875 8.265625 
Q 6.984375 17.96875 6.984375 36.375 
Q 6.984375 53.65625 15.1875 63.9375 
Q 23.390625 74.21875 37.203125 74.21875 
Q 40.921875 74.21875 44.703125 73.484375 
Q 48.484375 72.75 52.59375 71.296875 
z
" id="DejaVuSans-54"/>
      </defs>
      <g transform="translate(409.096875 114.080633)scale(0.1 -0.1)">
       <use xlink:href="#DejaVuSans-48"/>
       <use x="63.623047" xlink:href="#DejaVuSans-46"/>
       <use x="95.410156" xlink:href="#DejaVuSans-54"/>
      </g>
     </g>
    </g>
    <g id="ytick_5">
     <g id="line2d_75">
      <path clip-path="url(#p2d9c5f2f06)" d="M 432 55.140707 
L 864 55.140707 
" style="fill:none;stroke:#0000ff;stroke-dasharray:0.74,0.32;stroke-dashoffset:0;stroke-opacity:0.5;stroke-width:0.2;"/>
     </g>
     <g id="line2d_76">
      <g>
       <use style="stroke:#000000;stroke-width:0.8;" x="432" xlink:href="#m5a52943baf" y="55.140707"/>
      </g>
     </g>
     <g id="text_17">
      <!-- 0.8 -->
      <defs>
       <path d="M 31.78125 34.625 
Q 24.75 34.625 20.71875 30.859375 
Q 16.703125 27.09375 16.703125 20.515625 
Q 16.703125 13.921875 20.71875 10.15625 
Q 24.75 6.390625 31.78125 6.390625 
Q 38.8125 6.390625 42.859375 10.171875 
Q 46.921875 13.96875 46.921875 20.515625 
Q 46.921875 27.09375 42.890625 30.859375 
Q 38.875 34.625 31.78125 34.625 
z
M 21.921875 38.8125 
Q 15.578125 40.375 12.03125 44.71875 
Q 8.5 49.078125 8.5 55.328125 
Q 8.5 64.0625 14.71875 69.140625 
Q 20.953125 74.21875 31.78125 74.21875 
Q 42.671875 74.21875 48.875 69.140625 
Q 55.078125 64.0625 55.078125 55.328125 
Q 55.078125 49.078125 51.53125 44.71875 
Q 48 40.375 41.703125 38.8125 
Q 48.828125 37.15625 52.796875 32.3125 
Q 56.78125 27.484375 56.78125 20.515625 
Q 56.78125 9.90625 50.3125 4.234375 
Q 43.84375 -1.421875 31.78125 -1.421875 
Q 19.734375 -1.421875 13.25 4.234375 
Q 6.78125 9.90625 6.78125 20.515625 
Q 6.78125 27.484375 10.78125 32.3125 
Q 14.796875 37.15625 21.921875 38.8125 
z
M 18.3125 54.390625 
Q 18.3125 48.734375 21.84375 45.5625 
Q 25.390625 42.390625 31.78125 42.390625 
Q 38.140625 42.390625 41.71875 45.5625 
Q 45.3125 48.734375 45.3125 54.390625 
Q 45.3125 60.0625 41.71875 63.234375 
Q 38.140625 66.40625 31.78125 66.40625 
Q 25.390625 66.40625 21.84375 63.234375 
Q 18.3125 60.0625 18.3125 54.390625 
z
" id="DejaVuSans-56"/>
      </defs>
      <g transform="translate(409.096875 58.939926)scale(0.1 -0.1)">
       <use xlink:href="#DejaVuSans-48"/>
       <use x="63.623047" xlink:href="#DejaVuSans-46"/>
       <use x="95.410156" xlink:href="#DejaVuSans-56"/>
      </g>
     </g>
    </g>
    <g id="ytick_6">
     <g id="line2d_77">
      <path clip-path="url(#p2d9c5f2f06)" d="M 432 -0 
L 864 -0 
" style="fill:none;stroke:#0000ff;stroke-dasharray:0.74,0.32;stroke-dashoffset:0;stroke-opacity:0.5;stroke-width:0.2;"/>
     </g>
     <g id="line2d_78">
      <g>
       <use style="stroke:#000000;stroke-width:0.8;" x="432" xlink:href="#m5a52943baf" y="-0"/>
      </g>
     </g>
     <g id="text_18">
      <!-- 1.0 -->
      <g transform="translate(409.096875 3.799219)scale(0.1 -0.1)">
       <use xlink:href="#DejaVuSans-49"/>
       <use x="63.623047" xlink:href="#DejaVuSans-46"/>
       <use x="95.410156" xlink:href="#DejaVuSans-48"/>
      </g>
     </g>
    </g>
    <g id="ytick_7">
     <g id="line2d_79">
      <defs>
       <path d="M 0 0 
L -4 0 
" id="m8eb0d90113" style="stroke:#0000ff;stroke-width:0.6;"/>
      </defs>
      <g>
       <use style="fill:#0000ff;stroke:#0000ff;stroke-width:0.6;" x="432" xlink:href="#m8eb0d90113" y="261.91836"/>
      </g>
     </g>
    </g>
    <g id="ytick_8">
     <g id="line2d_80">
      <g>
       <use style="fill:#0000ff;stroke:#0000ff;stroke-width:0.6;" x="432" xlink:href="#m8eb0d90113" y="248.133183"/>
      </g>
     </g>
    </g>
    <g id="ytick_9">
     <g id="line2d_81">
      <g>
       <use style="fill:#0000ff;stroke:#0000ff;stroke-width:0.6;" x="432" xlink:href="#m8eb0d90113" y="234.348006"/>
      </g>
     </g>
    </g>
    <g id="ytick_10">
     <g id="line2d_82">
      <g>
       <use style="fill:#0000ff;stroke:#0000ff;stroke-width:0.6;" x="432" xlink:href="#m8eb0d90113" y="206.777653"/>
      </g>
     </g>
    </g>
    <g id="ytick_11">
     <g id="line2d_83">
      <g>
       <use style="fill:#0000ff;stroke:#0000ff;stroke-width:0.6;" x="432" xlink:href="#m8eb0d90113" y="192.992476"/>
      </g>
     </g>
    </g>
    <g id="ytick_12">
     <g id="line2d_84">
      <g>
       <use style="fill:#0000ff;stroke:#0000ff;stroke-width:0.6;" x="432" xlink:href="#m8eb0d90113" y="179.207299"/>
      </g>
     </g>
    </g>
    <g id="ytick_13">
     <g id="line2d_85">
      <g>
       <use style="fill:#0000ff;stroke:#0000ff;stroke-width:0.6;" x="432" xlink:href="#m8eb0d90113" y="151.636945"/>
      </g>
     </g>
    </g>
    <g id="ytick_14">
     <g id="line2d_86">
      <g>
       <use style="fill:#0000ff;stroke:#0000ff;stroke-width:0.6;" x="432" xlink:href="#m8eb0d90113" y="137.851768"/>
      </g>
     </g>
    </g>
    <g id="ytick_15">
     <g id="line2d_87">
      <g>
       <use style="fill:#0000ff;stroke:#0000ff;stroke-width:0.6;" x="432" xlink:href="#m8eb0d90113" y="124.066592"/>
      </g>
     </g>
    </g>
    <g id="ytick_16">
     <g id="line2d_88">
      <g>
       <use style="fill:#0000ff;stroke:#0000ff;stroke-width:0.6;" x="432" xlink:href="#m8eb0d90113" y="96.496238"/>
      </g>
     </g>
    </g>
    <g id="ytick_17">
     <g id="line2d_89">
      <g>
       <use style="fill:#0000ff;stroke:#0000ff;stroke-width:0.6;" x="432" xlink:href="#m8eb0d90113" y="82.711061"/>
      </g>
     </g>
    </g>
    <g id="ytick_18">
     <g id="line2d_90">
      <g>
       <use style="fill:#0000ff;stroke:#0000ff;stroke-width:0.6;" x="432" xlink:href="#m8eb0d90113" y="68.925884"/>
      </g>
     </g>
    </g>
    <g id="ytick_19">
     <g id="line2d_91">
      <g>
       <use style="fill:#0000ff;stroke:#0000ff;stroke-width:0.6;" x="432" xlink:href="#m8eb0d90113" y="41.355531"/>
      </g>
     </g>
    </g>
    <g id="ytick_20">
     <g id="line2d_92">
      <g>
       <use style="fill:#0000ff;stroke:#0000ff;stroke-width:0.6;" x="432" xlink:href="#m8eb0d90113" y="27.570354"/>
      </g>
     </g>
    </g>
    <g id="ytick_21">
     <g id="line2d_93">
      <g>
       <use style="fill:#0000ff;stroke:#0000ff;stroke-width:0.6;" x="432" xlink:href="#m8eb0d90113" y="13.785177"/>
      </g>
     </g>
    </g>
    <g id="text_19">
     <!-- $\phi_{\mu, \sigma^2}(X)$ -->
     <defs>
      <path d="M 46.734375 75.984375 
L 42.78125 55.8125 
Q 52.546875 55.8125 57.5625 48.34375 
Q 62.75 40.71875 60.15625 27.296875 
Q 57.515625 13.875 49.359375 6.25 
Q 41.453125 -1.21875 31.6875 -1.21875 
L 27.875 -20.796875 
L 18.953125 -20.796875 
L 22.75 -1.21875 
Q 13.03125 -1.21875 7.953125 6.25 
Q 2.78125 13.875 5.421875 27.296875 
Q 8.015625 40.71875 16.15625 48.34375 
Q 24.125 55.8125 33.84375 55.8125 
L 37.796875 75.984375 
z
M 33.25 6.78125 
Q 38.765625 6.78125 43.5 11.8125 
Q 48.6875 17.4375 50.6875 27.296875 
Q 52.640625 37.0625 49.515625 42.78125 
Q 46.734375 47.796875 41.21875 47.796875 
z
M 24.3125 6.78125 
L 32.28125 47.796875 
Q 26.8125 47.796875 22.078125 42.78125 
Q 16.75 37.0625 14.890625 27.296875 
Q 13.03125 17.4375 16.0625 11.8125 
Q 18.796875 6.78125 24.3125 6.78125 
z
" id="DejaVuSans-Oblique-981"/>
      <path d="M -1.3125 -20.796875 
L 13.375 54.6875 
L 22.40625 54.6875 
L 15.765625 20.65625 
Q 15.578125 19.625 15.421875 18.359375 
Q 15.28125 17.09375 15.28125 15.828125 
Q 15.28125 11.28125 18.140625 8.828125 
Q 21 6.390625 26.3125 6.390625 
Q 33.546875 6.390625 37.984375 10.484375 
Q 42.4375 14.59375 44 22.796875 
L 50.203125 54.6875 
L 59.1875 54.6875 
L 51.03125 12.640625 
Q 50.828125 11.71875 50.75 11.03125 
Q 50.6875 10.359375 50.6875 9.8125 
Q 50.6875 8.296875 51.296875 7.59375 
Q 51.90625 6.890625 53.21875 6.890625 
Q 53.71875 6.890625 54.5625 7.125 
Q 55.421875 7.375 56.984375 8.015625 
L 55.609375 0.78125 
Q 53.46875 -0.296875 51.515625 -0.859375 
Q 49.5625 -1.421875 47.703125 -1.421875 
Q 44.484375 -1.421875 42.65625 0.625 
Q 40.828125 2.6875 40.828125 6.296875 
Q 38.09375 2.390625 34.296875 0.484375 
Q 30.515625 -1.421875 25.390625 -1.421875 
Q 20.84375 -1.421875 17.453125 0.671875 
Q 14.0625 2.78125 12.984375 6.203125 
L 7.71875 -20.796875 
z
" id="DejaVuSans-Oblique-956"/>
      <path d="M 11.71875 12.40625 
L 22.015625 12.40625 
L 22.015625 4 
L 14.015625 -11.625 
L 7.71875 -11.625 
L 11.71875 4 
z
" id="DejaVuSans-44"/>
      <path d="M 34.671875 47.5625 
Q 27.25 47.5625 22.21875 42.1875 
Q 16.890625 36.578125 15.140625 27.296875 
Q 13.1875 17.484375 16.3125 11.8125 
Q 19.390625 6.203125 26.65625 6.203125 
Q 33.84375 6.203125 39.109375 11.859375 
Q 44.4375 17.53125 46.34375 27.296875 
Q 48.046875 36.234375 45.015625 42.1875 
Q 42.1875 47.5625 34.671875 47.5625 
z
M 36.078125 54.734375 
L 65.921875 54.6875 
L 64.15625 45.703125 
L 54.109375 45.703125 
Q 57.90625 38.09375 55.859375 27.296875 
Q 53.21875 13.875 45.0625 6.25 
Q 36.859375 -1.421875 25.140625 -1.421875 
Q 13.375 -1.421875 8.203125 6.25 
Q 3.03125 13.875 5.671875 27.296875 
Q 8.25 40.765625 16.40625 48.390625 
Q 23.1875 54.734375 36.078125 54.734375 
z
" id="DejaVuSans-Oblique-963"/>
      <path d="M 31 75.875 
Q 24.46875 64.65625 21.28125 53.65625 
Q 18.109375 42.671875 18.109375 31.390625 
Q 18.109375 20.125 21.3125 9.0625 
Q 24.515625 -2 31 -13.1875 
L 23.1875 -13.1875 
Q 15.875 -1.703125 12.234375 9.375 
Q 8.59375 20.453125 8.59375 31.390625 
Q 8.59375 42.28125 12.203125 53.3125 
Q 15.828125 64.359375 23.1875 75.875 
z
" id="DejaVuSans-40"/>
      <path d="M 8.015625 75.875 
L 15.828125 75.875 
Q 23.140625 64.359375 26.78125 53.3125 
Q 30.421875 42.28125 30.421875 31.390625 
Q 30.421875 20.453125 26.78125 9.375 
Q 23.140625 -1.703125 15.828125 -13.1875 
L 8.015625 -13.1875 
Q 14.5 -2 17.703125 9.0625 
Q 20.90625 20.125 20.90625 31.390625 
Q 20.90625 42.671875 17.703125 53.65625 
Q 14.5 64.65625 8.015625 75.875 
z
" id="DejaVuSans-41"/>
     </defs>
     <g transform="translate(401.996875 162.85)rotate(-90)scale(0.1 -0.1)">
      <use transform="translate(0 0.015625)" xlink:href="#DejaVuSans-Oblique-981"/>
      <use transform="translate(65.966797 -16.390625)scale(0.7)" xlink:href="#DejaVuSans-Oblique-956"/>
      <use transform="translate(110.50293 -16.390625)scale(0.7)" xlink:href="#DejaVuSans-44"/>
      <use transform="translate(146.391602 -16.390625)scale(0.7)" xlink:href="#DejaVuSans-Oblique-963"/>
      <use transform="translate(193.887732 10.40625)scale(0.49)" xlink:href="#DejaVuSans-50"/>
      <use transform="translate(229.711462 0.015625)" xlink:href="#DejaVuSans-40"/>
      <use transform="translate(268.725134 0.015625)" xlink:href="#DejaVuSans-Oblique-88"/>
      <use transform="translate(337.230993 0.015625)" xlink:href="#DejaVuSans-41"/>
     </g>
    </g>
   </g>
   <g id="line2d_94">
    <path clip-path="url(#p2d9c5f2f06)" d="M 451.636364 275.703537 
L 579.007371 275.593878 
L 584.511057 275.346 
L 588.04914 274.977824 
L 590.800983 274.479759 
L 593.159705 273.825364 
L 595.125307 273.056382 
L 597.090909 272.018994 
L 598.663391 270.946347 
L 600.235872 269.610468 
L 601.808354 267.961765 
L 603.380835 265.94548 
L 604.953317 263.502268 
L 606.525799 260.569133 
L 608.09828 257.080763 
L 609.670762 252.971305 
L 611.243243 248.176563 
L 612.815725 242.636632 
L 614.388206 236.298902 
L 615.960688 229.121362 
L 617.92629 218.927545 
L 619.891892 207.364298 
L 621.857494 194.469883 
L 624.216216 177.385136 
L 626.968059 155.629228 
L 631.685504 115.942105 
L 635.223587 86.936216 
L 637.58231 69.432211 
L 639.547912 56.65078 
L 641.120393 47.921153 
L 642.299754 42.377031 
L 643.479115 37.77322 
L 644.658477 34.170107 
L 645.444717 32.34814 
L 646.230958 31.003302 
L 647.017199 30.143629 
L 647.80344 29.774274 
L 648.19656 29.774274 
L 648.589681 29.897454 
L 649.375921 30.51243 
L 650.162162 31.615511 
L 650.948403 33.200095 
L 651.734644 35.256733 
L 652.914005 39.19937 
L 654.093366 44.123912 
L 655.272727 49.966067 
L 656.845209 59.05193 
L 658.41769 69.432211 
L 660.383292 83.8855 
L 663.135135 106.042621 
L 671.783784 177.385136 
L 674.142506 194.469883 
L 676.108108 207.364298 
L 678.07371 218.927545 
L 680.039312 229.121362 
L 682.004914 237.960639 
L 683.577396 244.094508 
L 685.149877 249.442871 
L 686.722359 254.060459 
L 688.29484 258.00852 
L 689.867322 261.351894 
L 691.439803 264.156489 
L 693.012285 266.487187 
L 694.584767 268.406179 
L 696.157248 269.971737 
L 697.72973 271.237368 
L 699.302211 272.251322 
L 701.267813 273.229503 
L 703.233415 273.952586 
L 705.592138 274.566078 
L 708.34398 275.031374 
L 711.882064 275.373872 
L 716.599509 275.583829 
L 724.855037 275.686444 
L 756.304668 275.703536 
L 844.363636 275.703537 
L 844.363636 275.703537 
" style="fill:none;stroke:#0000ff;stroke-linecap:square;stroke-width:1.5;"/>
   </g>
   <g id="line2d_95">
    <path clip-path="url(#p2d9c5f2f06)" d="M 451.636364 275.703127 
L 502.348894 275.590141 
L 515.321867 275.33798 
L 523.970516 274.95272 
L 530.653563 274.436917 
L 536.157248 273.797037 
L 540.874693 273.038712 
L 545.199017 272.126887 
L 549.130221 271.078703 
L 552.668305 269.924797 
L 556.206388 268.541355 
L 559.744472 266.898468 
L 562.889435 265.196126 
L 566.034398 263.24481 
L 569.179361 261.025547 
L 572.324324 258.521509 
L 575.469287 255.718857 
L 578.614251 252.607635 
L 581.759214 249.182676 
L 584.904177 245.44449 
L 588.44226 240.873629 
L 591.980344 235.936377 
L 595.911548 230.062061 
L 600.235872 223.204403 
L 606.132678 213.392461 
L 617.53317 194.295534 
L 621.464373 188.161526 
L 625.002457 183.043954 
L 628.14742 178.906178 
L 630.899263 175.661986 
L 633.257985 173.19621 
L 635.616708 171.047855 
L 637.58231 169.516209 
L 639.547912 168.231701 
L 641.513514 167.203789 
L 643.479115 166.440095 
L 645.444717 165.946312 
L 647.410319 165.726137 
L 649.375921 165.781222 
L 651.341523 166.111153 
L 653.307125 166.713458 
L 655.272727 167.583632 
L 657.238329 168.715202 
L 659.203931 170.099799 
L 661.169533 171.727265 
L 663.528256 173.984054 
L 665.886978 176.550173 
L 668.638821 179.900051 
L 671.390663 183.590125 
L 674.535627 188.161526 
L 678.46683 194.295534 
L 683.577396 202.733065 
L 697.72973 226.366627 
L 702.054054 233.046952 
L 705.985258 238.722834 
L 709.523342 243.459852 
L 713.061425 247.817336 
L 716.206388 251.360147 
L 719.351351 254.5887 
L 722.496314 257.506137 
L 725.641278 260.120723 
L 728.786241 262.444946 
L 731.931204 264.494615 
L 735.076167 266.287997 
L 738.22113 267.845002 
L 741.759214 269.340038 
L 745.297297 270.592306 
L 749.228501 271.734853 
L 753.159705 272.652722 
L 757.484029 273.445474 
L 762.594595 274.145752 
L 768.4914 274.709651 
L 775.567568 275.140928 
L 784.216216 275.434995 
L 796.796069 275.619548 
L 820.383292 275.696332 
L 844.363636 275.703127 
L 844.363636 275.703127 
" style="fill:none;stroke:#ff0000;stroke-linecap:square;stroke-width:1.5;"/>
   </g>
   <g id="line2d_96">
    <path clip-path="url(#p2d9c5f2f06)" d="M 451.636364 271.665863 
L 461.857494 270.500953 
L 471.292383 269.207975 
L 480.727273 267.686734 
L 489.769042 266.001254 
L 498.810811 264.085237 
L 507.85258 261.937555 
L 516.894349 259.564865 
L 526.722359 256.749066 
L 537.336609 253.46873 
L 550.309582 249.209776 
L 584.904177 237.704904 
L 594.339066 234.891668 
L 602.201474 232.769097 
L 609.670762 230.983764 
L 616.353808 229.607068 
L 623.036855 228.462384 
L 629.326781 227.614176 
L 635.223587 227.032458 
L 641.120393 226.665315 
L 647.017199 226.517684 
L 652.914005 226.591555 
L 658.810811 226.885932 
L 664.707617 227.396851 
L 670.997543 228.172752 
L 677.287469 229.175504 
L 683.970516 230.472728 
L 691.046683 232.083091 
L 698.515971 234.015449 
L 706.771499 236.384119 
L 716.599509 239.449301 
L 729.572482 243.751251 
L 758.27027 253.343167 
L 769.277641 256.749066 
L 779.105651 259.564865 
L 788.540541 262.035689 
L 797.58231 264.173377 
L 806.624079 266.079296 
L 815.665848 267.754883 
L 824.707617 269.207975 
L 834.142506 270.500953 
L 843.970516 271.625284 
L 844.363636 271.665863 
L 844.363636 271.665863 
" style="fill:none;stroke:#ffa500;stroke-linecap:square;stroke-width:1.5;"/>
   </g>
   <g id="line2d_97">
    <path clip-path="url(#p2d9c5f2f06)" d="M 451.636364 275.684341 
L 466.968059 275.532025 
L 474.437346 275.257177 
L 479.941032 274.841238 
L 484.265356 274.296246 
L 487.80344 273.640062 
L 490.948403 272.843129 
L 493.700246 271.936855 
L 496.452088 270.791911 
L 498.810811 269.585238 
L 501.169533 268.136899 
L 503.528256 266.412974 
L 505.886978 264.378284 
L 508.2457 261.997225 
L 510.604423 259.234806 
L 512.963145 256.057884 
L 515.321867 252.436579 
L 517.68059 248.345837 
L 520.039312 243.767107 
L 522.398034 238.690053 
L 524.756757 233.114248 
L 527.5086 225.994248 
L 530.260442 218.250883 
L 533.405405 208.72395 
L 537.336609 196.014245 
L 545.199017 169.483827 
L 549.130221 156.701951 
L 552.275184 147.244549 
L 554.633907 140.801681 
L 556.599509 135.95872 
L 558.565111 131.665341 
L 560.137592 128.667207 
L 561.710074 126.087169 
L 563.282555 123.949227 
L 564.461916 122.648145 
L 565.641278 121.614075 
L 566.820639 120.85256 
L 568 120.3677 
L 569.179361 120.16211 
L 570.358722 120.236902 
L 571.538084 120.59167 
L 572.717445 121.2245 
L 573.896806 122.13198 
L 575.076167 123.309236 
L 576.255528 124.749974 
L 577.82801 127.067393 
L 579.400491 129.817756 
L 580.972973 132.975604 
L 582.938575 137.451752 
L 584.904177 142.456764 
L 587.262899 149.064455 
L 590.014742 157.443687 
L 593.552826 168.958887 
L 606.132678 210.681346 
L 609.277641 220.072749 
L 612.029484 227.67848 
L 614.781327 234.649491 
L 617.140049 240.092876 
L 619.498771 245.036564 
L 621.857494 249.483783 
L 624.216216 253.447229 
L 626.574939 256.947354 
L 628.933661 260.010659 
L 631.292383 262.668041 
L 633.651106 264.953267 
L 636.009828 266.901606 
L 638.36855 268.54864 
L 640.727273 269.929287 
L 643.085995 271.077015 
L 645.837838 272.163453 
L 648.589681 273.021234 
L 651.734644 273.773503 
L 655.272727 274.391046 
L 659.597052 274.902156 
L 664.707617 275.269978 
L 671.390663 275.519046 
L 682.004914 275.661374 
L 707.164619 275.702826 
L 844.363636 275.703537 
L 844.363636 275.703537 
" style="fill:none;stroke:#008000;stroke-linecap:square;stroke-width:1.5;"/>
   </g>
   <g id="patch_3">
    <path d="M 432 288 
L 432 -0 
" style="fill:none;stroke:#000000;stroke-linecap:square;stroke-linejoin:miter;stroke-width:0.8;"/>
   </g>
   <g id="patch_4">
    <path d="M 864 288 
L 864 -0 
" style="fill:none;stroke:#000000;stroke-linecap:square;stroke-linejoin:miter;stroke-width:0.8;"/>
   </g>
   <g id="patch_5">
    <path d="M 432 288 
L 864 288 
" style="fill:none;stroke:#000000;stroke-linecap:square;stroke-linejoin:miter;stroke-width:0.8;"/>
   </g>
   <g id="patch_6">
    <path d="M 432 0 
L 864 0 
" style="fill:none;stroke:#000000;stroke-linecap:square;stroke-linejoin:miter;stroke-width:0.8;"/>
   </g>
   <g id="legend_1">
    <g id="patch_7">
     <path d="M 742.9 72.8 
L 857 72.8 
Q 859 72.8 859 70.8 
L 859 7 
Q 859 5 857 5 
L 742.9 5 
Q 740.9 5 740.9 7 
L 740.9 70.8 
Q 740.9 72.8 742.9 72.8 
z
" style="fill:#ffffff;opacity:0.8;stroke:#cccccc;stroke-linejoin:miter;"/>
    </g>
    <g id="text_20">
     <!-- $\mu=0, \sigma^2=0.2$ -->
     <defs>
      <path d="M 10.59375 45.40625 
L 73.1875 45.40625 
L 73.1875 37.203125 
L 10.59375 37.203125 
z
M 10.59375 25.484375 
L 73.1875 25.484375 
L 73.1875 17.1875 
L 10.59375 17.1875 
z
" id="DejaVuSans-61"/>
     </defs>
     <g transform="translate(757.1 18.1)scale(0.1 -0.1)">
      <use transform="translate(0 0.765625)" xlink:href="#DejaVuSans-Oblique-956"/>
      <use transform="translate(83.105469 0.765625)" xlink:href="#DejaVuSans-61"/>
      <use transform="translate(186.376953 0.765625)" xlink:href="#DejaVuSans-48"/>
      <use transform="translate(250 0.765625)" xlink:href="#DejaVuSans-44"/>
      <use transform="translate(301.269531 0.765625)" xlink:href="#DejaVuSans-Oblique-963"/>
      <use transform="translate(369.121146 39.046875)scale(0.7)" xlink:href="#DejaVuSans-50"/>
      <use transform="translate(435.874076 0.765625)" xlink:href="#DejaVuSans-61"/>
      <use transform="translate(539.14556 0.765625)" xlink:href="#DejaVuSans-48"/>
      <use transform="translate(602.768607 0.765625)" xlink:href="#DejaVuSans-46"/>
      <use transform="translate(634.477591 0.765625)" xlink:href="#DejaVuSans-50"/>
     </g>
    </g>
    <g id="line2d_98">
     <path d="M 835 14.6 
L 855 14.6 
" style="fill:none;stroke:#0000ff;stroke-linecap:square;stroke-width:1.5;"/>
    </g>
    <g id="line2d_99"/>
    <g id="text_21">
     <!-- $\mu=0, \sigma^2=1.0$ -->
     <g transform="translate(757.1 34.3)scale(0.1 -0.1)">
      <use transform="translate(0 0.765625)" xlink:href="#DejaVuSans-Oblique-956"/>
      <use transform="translate(83.105469 0.765625)" xlink:href="#DejaVuSans-61"/>
      <use transform="translate(186.376953 0.765625)" xlink:href="#DejaVuSans-48"/>
      <use transform="translate(250 0.765625)" xlink:href="#DejaVuSans-44"/>
      <use transform="translate(301.269531 0.765625)" xlink:href="#DejaVuSans-Oblique-963"/>
      <use transform="translate(369.121146 39.046875)scale(0.7)" xlink:href="#DejaVuSans-50"/>
      <use transform="translate(435.874076 0.765625)" xlink:href="#DejaVuSans-61"/>
      <use transform="translate(539.14556 0.765625)" xlink:href="#DejaVuSans-49"/>
      <use transform="translate(602.768607 0.765625)" xlink:href="#DejaVuSans-46"/>
      <use transform="translate(634.555716 0.765625)" xlink:href="#DejaVuSans-48"/>
     </g>
    </g>
    <g id="line2d_100">
     <path d="M 835 30.8 
L 855 30.8 
" style="fill:none;stroke:#ff0000;stroke-linecap:square;stroke-width:1.5;"/>
    </g>
    <g id="line2d_101"/>
    <g id="text_22">
     <!-- $\mu=0, \sigma^2=5.0$ -->
     <g transform="translate(757.1 50.5)scale(0.1 -0.1)">
      <use transform="translate(0 0.765625)" xlink:href="#DejaVuSans-Oblique-956"/>
      <use transform="translate(83.105469 0.765625)" xlink:href="#DejaVuSans-61"/>
      <use transform="translate(186.376953 0.765625)" xlink:href="#DejaVuSans-48"/>
      <use transform="translate(250 0.765625)" xlink:href="#DejaVuSans-44"/>
      <use transform="translate(301.269531 0.765625)" xlink:href="#DejaVuSans-Oblique-963"/>
      <use transform="translate(369.121146 39.046875)scale(0.7)" xlink:href="#DejaVuSans-50"/>
      <use transform="translate(435.874076 0.765625)" xlink:href="#DejaVuSans-61"/>
      <use transform="translate(539.14556 0.765625)" xlink:href="#DejaVuSans-53"/>
      <use transform="translate(602.768607 0.765625)" xlink:href="#DejaVuSans-46"/>
      <use transform="translate(634.555716 0.765625)" xlink:href="#DejaVuSans-48"/>
     </g>
    </g>
    <g id="line2d_102">
     <path d="M 835 47 
L 855 47 
" style="fill:none;stroke:#ffa500;stroke-linecap:square;stroke-width:1.5;"/>
    </g>
    <g id="line2d_103"/>
    <g id="text_23">
     <!-- $\mu=-2, \sigma^2=0.5$ -->
     <g transform="translate(744.9 66.7)scale(0.1 -0.1)">
      <use transform="translate(0 0.765625)" xlink:href="#DejaVuSans-Oblique-956"/>
      <use transform="translate(83.105469 0.765625)" xlink:href="#DejaVuSans-61"/>
      <use transform="translate(205.859375 0.765625)" xlink:href="#DejaVuSans-8722"/>
      <use transform="translate(309.130859 0.765625)" xlink:href="#DejaVuSans-50"/>
      <use transform="translate(372.753906 0.765625)" xlink:href="#DejaVuSans-44"/>
      <use transform="translate(424.023438 0.765625)" xlink:href="#DejaVuSans-Oblique-963"/>
      <use transform="translate(491.875052 39.046875)scale(0.7)" xlink:href="#DejaVuSans-50"/>
      <use transform="translate(558.627982 0.765625)" xlink:href="#DejaVuSans-61"/>
      <use transform="translate(661.899466 0.765625)" xlink:href="#DejaVuSans-48"/>
      <use transform="translate(725.522513 0.765625)" xlink:href="#DejaVuSans-46"/>
      <use transform="translate(757.309622 0.765625)" xlink:href="#DejaVuSans-53"/>
     </g>
    </g>
    <g id="line2d_104">
     <path d="M 835 63.2 
L 855 63.2 
" style="fill:none;stroke:#008000;stroke-linecap:square;stroke-width:1.5;"/>
    </g>
    <g id="line2d_105"/>
   </g>
  </g>
 </g>
 <defs>
  <clipPath id="p2d9c5f2f06">
   <rect height="288" width="432" x="432" y="0"/>
  </clipPath>
 </defs>
</svg>
